<?xml version="1.0" standalone="no"?><!DOCTYPE svg PUBLIC "-//W3C//DTD SVG 1.1//EN" "http://www.w3.org/Graphics/SVG/1.1/DTD/svg11.dtd"><svg t="1736472495161" class="icon" viewBox="0 0 1024 1024" version="1.1" xmlns="http://www.w3.org/2000/svg" p-id="4678" xmlns:xlink="http://www.w3.org/1999/xlink" width="200" height="200"><path d="M157.2 295.7c-11.7-42.8 7.1-80.4 48.5-98.6 41.4-18.1 110.5-31.6 136.4 5 26 36.7 13 170.7 13 170.7l-54.9 24.1-55 24.1s-76.3-82.3-88-125.3z" fill="#55B765" p-id="4679"></path><path d="M245.2 431c-2.7 0-5.4-1.1-7.3-3.2-3.2-3.4-78.1-84.6-90.3-129.4-6.4-23.4-4.6-46 5-65.6 9.6-19.4 26.6-34.9 49.1-44.8 25.2-11 53.4-17.8 77.6-18.8 32.9-1.4 57.4 8 70.9 27.2 12 17 18.1 52.3 18.1 104.9 0 38.1-3.1 71.2-3.3 72.5-0.3 3.6-2.6 6.7-5.9 8.2l-109.9 48.1c-1.3 0.6-2.7 0.9-4 0.9z m40.3-242c-1.8 0-3.6 0-5.4 0.1-21.5 0.9-47.8 7.3-70.4 17.2-37.2 16.4-53.2 48.8-42.9 86.8 4.4 16.3 20.6 42.3 46.6 75.2 14 17.7 27.5 33 34.3 40.7l97.9-42.9c3.4-40.1 6.8-131.9-11.8-158.2-6.1-8.8-19.5-18.9-48.3-18.9z" fill="#543630" p-id="4680"></path><path d="M578.9 295.7c11.7-42.8-7.1-80.4-48.5-98.6-41.4-18.1-110.5-31.6-136.4 5-26 36.7-13 170.7-13 170.7l54.9 24.1 54.9 24.1c0.1 0 76.4-82.3 88.1-125.3z" fill="#55B765" p-id="4681"></path><path d="M490.9 431c-1.4 0-2.7-0.3-4-0.8L377 382c-3.3-1.5-5.6-4.6-5.9-8.2-0.1-1.4-3.3-34.4-3.3-72.5 0-52.6 6.1-87.9 18.1-104.9 13.5-19.2 38.1-28.6 70.9-27.2 24.2 1 52.5 7.9 77.6 18.8 22.6 9.9 39.5 25.4 49.1 44.8 9.7 19.6 11.4 42.2 5 65.6-12.2 44.8-87.2 126-90.3 129.4-1.9 2.1-4.6 3.2-7.3 3.2z m-100.4-64.9l97.9 42.9c16.6-18.5 71.6-81.7 80.9-115.8 10.4-38-5.7-70.4-42.9-86.8-22.6-9.9-48.9-16.3-70.4-17.2-32.5-1.4-47.2 9.5-53.8 18.8-5.4 7.6-14.4 29.8-14.4 93.2 0 27.9 1.8 53.7 2.7 64.9z" fill="#543630" p-id="4682"></path><path d="M465.2 198.5c-10.9-43.2-43.9-57.2-97.5-57.3-53.6 0.1-89.5 13.4-97.5 57.3-14.6 80.1 26.4 168 26.4 168h142.2s45-93.9 26.4-168z" fill="#55B765" p-id="4683"></path><path d="M438.8 376.5H296.5c-3.9 0-7.4-2.3-9.1-5.8-1.7-3.7-42.1-91.7-27.1-174 10.7-58.6 66.4-65.4 107.3-65.5 42.4 0.1 92.8 7.5 107.2 64.8 8.1 32.4 6 71.7-6.2 116.8-9 33.2-20.3 56.9-20.8 57.9-1.6 3.6-5.1 5.8-9 5.8z m-135.7-20h129.2c9-21 38.1-96 23.1-155.5-8.9-35.2-34.3-49.6-87.8-49.7-27.2 0-47.2 3.6-61.2 11.1-14.8 7.8-23.2 19.9-26.5 38-11.6 64.4 14.8 135.6 23.2 156.1z" fill="#543630" p-id="4684"></path><path d="M363.2 870.9c-31.8 0-70.5-19.2-101.4-60.6-37.4-50.1-117.6-242.6-108-353.3 9.4-107.5 96.3-144.4 214-144.4s207.1 36.8 214 144.4c7.5 116.5-70.6 297.5-117.8 355.1-44.3 54.1-69 58.8-100.8 58.8z" fill="#FF5F67" p-id="4685"></path><path d="M363.2 880.9c-38.3 0-79.2-24.1-109.4-64.6-20.9-28-50.9-92.4-73.1-156.7-16.3-47.2-42.7-136.4-36.9-203.5 4.7-54.2 28.7-94.6 71.2-120.2 36.7-22.1 88.1-33.3 152.8-33.3 65 0 116.7 11.2 153.7 33.2 43.2 25.8 66.8 66.3 70.3 120.5 4.6 71.8-22.4 158.4-39 203.7-23.8 65.1-55.6 127.3-81.1 158.4-21.7 26.6-40.3 43.2-58.3 52.3-16.7 8.5-31.6 10.2-50.2 10.2z m4.6-558.3c-61 0-108.9 10.2-142.5 30.5-37.2 22.4-57.4 56.7-61.6 104.8-4.1 47 8.7 116.4 35.9 195.3 25.2 73 54.1 129.6 70.2 151.3 26.4 35.4 61.3 56.5 93.4 56.5 28.9 0 51-3.8 93-55.2 24.1-29.5 54.7-89.4 77.8-152.6 27.6-75.6 41.1-145 37.8-195.5-3.1-47.9-22.9-82.1-60.6-104.6-33.8-20.3-82-30.5-143.4-30.5z" fill="#543630" p-id="4686"></path><path d="M571.3 561c-2.2 0-4.5-0.8-6.4-2.3-65.1-53.8-162.4-35.6-163.3-35.4-5.4 1.1-10.7-2.5-11.7-7.9-1.1-5.4 2.5-10.7 7.9-11.7 1.1-0.2 27.2-5.2 62.3-3 46.9 3 87.6 17.7 117.6 42.5 4.3 3.5 4.9 9.8 1.3 14.1-2 2.4-4.8 3.7-7.7 3.7z" fill="#543630" p-id="4687"></path><path d="M542.9 669.1c-1.6 0-3.3-0.4-4.8-1.2-60.2-32.9-121.4-21.4-122-21.3-5.4 1.1-10.7-2.5-11.7-7.9-1.1-5.4 2.5-10.7 7.9-11.7 2.8-0.5 69-13 135.4 23.4 4.8 2.7 6.6 8.7 4 13.6-1.8 3.3-5.3 5.1-8.8 5.1z" fill="#543630" p-id="4688"></path><path d="M639.7 437.1c21.5-29 55-35.8 87.4-18.5 32.4 17.4 75.7 54.8 65.3 89.7-10.4 35.1-102.6 94.1-102.6 94.1l-43-23-43-23c0.1-0.1 14.3-90.2 35.9-119.3z" fill="#55B765" p-id="4689"></path><path d="M689.8 612.4c-1.6 0-3.2-0.4-4.7-1.2l-86-46.1c-3.8-2-5.8-6.2-5.2-10.4 0.1-0.9 3.7-23.2 10-49.5 8.6-36 18-61 27.7-74.1 12-16.2 27.8-26.7 45.6-30.4 17.7-3.7 36.5-0.6 54.6 9.1 19.9 10.7 38.6 25.5 51.6 40.6 17.8 20.8 24.2 41.8 18.6 60.8-11.2 37.6-97.1 93.4-106.8 99.7-1.6 1-3.5 1.5-5.4 1.5z m-74.9-61.5l74.5 39.9c34.7-22.8 87-63.5 93.5-85.3 2.5-8.4 2-22.6-14.6-42.1-11.2-13.1-28.4-26.6-45.8-36-28.2-15.1-56.2-9.2-74.6 15.7-15.3 20.4-28 79.3-33 107.8z" fill="#543630" p-id="4690"></path><path d="M851.6 706.8c33.2-14 47.8-45 38.7-80.5-9.3-35.6-35.3-86.5-71.7-84.7C782 543.4 702.9 619 702.9 619l12.2 47.2 12.2 47.2c0 0.1 91 7.5 124.3-6.6z" fill="#55B765" p-id="4691"></path><path d="M779.3 725.4H777c-27-0.1-49.5-1.9-50.4-2-4.2-0.3-7.8-3.3-8.9-7.5l-24.4-94.5c-0.9-3.5 0.2-7.2 2.8-9.7 8.4-8 83-78.2 122.1-80.2 19.8-1 38.6 10.2 54.7 32.5 11.6 16.2 21.6 37.9 27.2 59.7 5.1 19.8 3.7 38.9-4.1 55.2-7.8 16.4-21.8 29.3-40.4 37.1-14.8 6.3-40.5 9.4-76.3 9.4zM735.2 704c28.9 1.9 89.2 3.5 112.5-6.4 28.6-12.1 40.9-37.8 32.9-68.8-5-19.2-14-39-24.1-53-15-20.8-28.6-24.6-37.4-24.2-22.8 1.2-74.7 42.4-105 70.7l21.1 81.7z" fill="#543630" p-id="4692"></path><path d="M856.7 585.2c22.2-28.7 14.5-56.8-12.4-91.1-27-34.2-53.6-50.5-85.6-33.6-58.5 30.9-94.2 101.3-94.2 101.3l35.7 45.5 35.7 45.5c0.1 0 82.7-18.5 120.8-67.6z" fill="#55B765" p-id="4693"></path><path d="M736 662.8c-3 0-5.9-1.4-7.9-3.8l-71.5-91c-2.4-3.1-2.8-7.2-1.1-10.7 1.5-3 37.8-73.5 98.4-105.6 44.1-23.3 77.1 9.5 98.1 36.2 21.7 27.6 42.6 64.4 12.4 103.4-39.8 51.4-122.9 70.4-126.4 71.2-0.5 0.2-1.3 0.3-2 0.3z m-59.5-102l63.4 80.7c19.2-5.2 79.3-24.1 108.9-62.4 17.7-22.9 14.2-45-12.3-78.8-13.5-17.1-25.6-27.9-37.1-33-11.9-5.3-23.3-4.6-36 2.1-45.7 24.1-77.4 74.6-86.9 91.4z m180.2 24.4z" fill="#543630" p-id="4694"></path><path d="M375.5 857.9c-16-20.3-23.1-54.8-12.2-95.3 13.3-49.1 96-197.2 171.7-246.7 73.4-48 140.7-11 199.9 64.3 59.1 75.3 80.5 150.9 15.2 209.4C679.3 853 524.3 894 463.7 892.8c-56.9-1.2-72.2-14.6-88.2-34.9z" fill="#FF5F67" p-id="4695"></path><path d="M466.4 902.8h-2.9c-61.7-1.2-79.3-17.5-95.9-38.7-19.6-25-24.8-63.9-14-104 7.4-27.6 33.6-79.4 63.7-126 22.1-34.3 66-96.2 112.2-126.4 37.5-24.5 76-29.6 114.3-15.1 32.9 12.5 66.2 39.9 98.9 81.6 32.9 41.9 51.8 80.8 56.3 115.9 5.3 41.2-9 77.3-42.3 107.1-43.8 39.2-113.1 65.6-150.5 77.8-52.3 17-106.6 27.8-139.8 27.8z m-83.1-51.1c14.6 18.6 27.4 30 80.6 31.1 30.8 0.6 84.2-9.9 136-26.8 62-20.2 112.9-46.4 143.4-73.7 28.6-25.6 40.3-54.9 35.8-89.7-4-31.4-21.6-67.1-52.2-106.1-64.3-81.8-125.3-102.2-186.5-62.1-31.9 20.9-69.7 63.7-106.3 120.5-33.9 52.6-55.5 99.3-61.2 120.4-9.2 34.1-5.3 66.4 10.4 86.4z" fill="#543630" p-id="4696"></path><path d="M684.6 840.2h-0.2c-5.5-0.1-9.9-4.7-9.8-10.2 1.7-67.8-58.2-120.2-58.8-120.8-4.2-3.6-4.6-9.9-1-14.1 3.6-4.2 9.9-4.6 14.1-1 2.8 2.4 67.6 59.3 65.7 136.4-0.1 5.4-4.6 9.7-10 9.7z" fill="#543630" p-id="4697"></path><path d="M601.1 876.4c-4.8 0-9-3.5-9.9-8.4-9-54.1-46.7-87.3-47.1-87.6-4.2-3.6-4.6-9.9-1-14.1 3.6-4.2 9.9-4.6 14.1-1 1.8 1.5 43.5 38 53.7 99.5 0.9 5.4-2.8 10.6-8.2 11.5-0.5 0-1 0.1-1.6 0.1z" fill="#543630" p-id="4698"></path></svg>