<?xml version="1.0" encoding="UTF-8"?>
<svg width="18px" height="18px" viewBox="0 0 18 18" version="1.1" xmlns="http://www.w3.org/2000/svg" xmlns:xlink="http://www.w3.org/1999/xlink">
    <title>代码发布管理</title>
    <g id="代码发布管理" stroke="none" stroke-width="1" fill="none" fill-rule="evenodd">
        <g id="代码文件夹_folder-code" transform="translate(2.000000, 2.500000)">
            <path d="M5.15789474,0 L7,2.16666667 L13.2631579,2.16666667 C13.6701158,2.16666667 14,2.49000556 14,2.88888889 L14,12.2777778 C14,12.6766611 13.6701158,13 13.2631579,13 L0.736842105,13 C0.329895263,13 0,12.6766611 0,12.2777778 L0,0.722222222 C0,0.323349722 0.329895263,0 0.736842105,0 L5.15789474,0 Z M8.85355339,5.64644661 C8.65829124,5.45118446 8.34170876,5.45118446 8.14644661,5.64644661 L8.08859116,5.7156945 C7.95359511,5.91056264 7.97288026,6.17998704 8.14644661,6.35355339 L9.793,8 L8.14644661,9.64644661 C7.95118446,9.84170876 7.95118446,10.1582912 8.14644661,10.3535534 C8.34170876,10.5488155 8.65829124,10.5488155 8.85355339,10.3535534 L10.8535534,8.35355339 C11.0488155,8.15829124 11.0488155,7.84170876 10.8535534,7.64644661 Z M5.85355339,5.64644661 C5.65829124,5.45118446 5.34170876,5.45118446 5.14644661,5.64644661 L3.14644661,7.64644661 C2.95118446,7.84170876 2.95118446,8.15829124 3.14644661,8.35355339 L5.14644661,10.3535534 C5.34170876,10.5488155 5.65829124,10.5488155 5.85355339,10.3535534 L5.91140884,10.2843055 C6.04640489,10.0894374 6.02711974,9.82001296 5.85355339,9.64644661 L4.207,8 L5.85355339,6.35355339 C6.04881554,6.15829124 6.04881554,5.84170876 5.85355339,5.64644661 Z" id="路径-2" fill="#C6D3EB" fill-rule="nonzero"></path>
            <g id="编组" transform="translate(3.000000, 5.500000)"></g>
        </g>
    </g>
</svg>