<?xml version="1.0" encoding="UTF-8"?>
<svg width="18px" height="18px" viewBox="0 0 18 18" version="1.1" xmlns="http://www.w3.org/2000/svg" xmlns:xlink="http://www.w3.org/1999/xlink">
    <title>机构管理</title>
    <defs>
        <rect id="path-1" x="0" y="0" width="16" height="16"></rect>
    </defs>
    <g id="机构管理" stroke="none" stroke-width="1" fill="none" fill-rule="evenodd">
        <g id="机构管理备份" transform="translate(1.000000, 1.000000)">
            <mask id="mask-2" fill="white">
                <use xlink:href="#path-1"></use>
            </mask>
            <g id="路径备份-10"></g>
            <g id="building-fill" mask="url(#mask-2)" fill="#C6D3EB" fill-rule="nonzero">
                <g transform="translate(1.465166, 2.000000)" id="形状">
                    <path d="M12.677161,10.6666667 L13.5105484,10.6666667 L13.5105484,12 L0,12 L0,10.6666667 L0.898470003,10.6666667 L0.898470003,0.666666667 C0.898470003,0.29848 1.20373364,0 1.58028818,0 L8.39847,0 C8.77503818,0 9.08028818,0.29848 9.08028818,0.666666667 L9.08028818,10.6666667 L9.94988829,10.6666667 L9.94988829,4 L11.9953428,4 C12.371911,4 12.677161,4.29848 12.677161,4.66666667 L12.677161,10.6666667 Z M3.62574273,5.33333333 L3.62574273,6.66666667 L6.35301546,6.66666667 L6.35301546,5.33333333 L3.62574273,5.33333333 Z M3.62574273,2.66666667 L3.62574273,4 L6.35301546,4 L6.35301546,2.66666667 L3.62574273,2.66666667 Z"></path>
                </g>
            </g>
        </g>
    </g>
</svg>