<?xml version="1.0" encoding="UTF-8"?>
<svg width="18px" height="18px" viewBox="0 0 18 18" version="1.1" xmlns="http://www.w3.org/2000/svg" xmlns:xlink="http://www.w3.org/1999/xlink">
    <title>系统管理</title>
    <g id="系统管理" stroke="none" stroke-width="1" fill="none" fill-rule="evenodd">
        <path d="M3,2 L5.5,2 C7.15685425,2 8.5,3.34314575 8.5,5 L8.5,8.5 L8.5,8.5 L5,8.5 C3.34314575,8.5 2,7.15685425 2,5.5 L2,3 C2,2.44771525 2.44771525,2 3,2 Z" id="矩形" fill="#C6D3EB" fill-rule="nonzero"></path>
        <path d="M5,9.5 L8.5,9.5 L8.5,9.5 L8.5,13 C8.5,14.6568542 7.15685425,16 5.5,16 L3,16 C2.44771525,16 2,15.5522847 2,15 L2,12.5 C2,10.8431458 3.34314575,9.5 5,9.5 Z" id="矩形备份-2" fill="#C6D3EB" fill-rule="nonzero"></path>
        <path d="M12.5,2 L15,2 C15.5522847,2 16,2.44771525 16,3 L16,5.5 C16,7.15685425 14.6568542,8.5 13,8.5 L9.5,8.5 L9.5,8.5 L9.5,5 C9.5,3.34314575 10.8431458,2 12.5,2 Z" id="矩形备份" fill="#C6D3EB" fill-rule="nonzero"></path>
        <path d="M9.5,9.5 L13,9.5 C14.6568542,9.5 16,10.8431458 16,12.5 L16,15 C16,15.5522847 15.5522847,16 15,16 L12.5,16 C10.8431458,16 9.5,14.6568542 9.5,13 L9.5,9.5 L9.5,9.5 Z" id="矩形备份-3" fill="#C6D3EB" fill-rule="nonzero"></path>
    </g>
</svg>