<?xml version="1.0" standalone="no"?><!DOCTYPE svg PUBLIC "-//W3C//DTD SVG 1.1//EN" "http://www.w3.org/Graphics/SVG/1.1/DTD/svg11.dtd"><svg class="icon" width="200px" height="200.00px" viewBox="0 0 1024 1024" version="1.1" xmlns="http://www.w3.org/2000/svg"><path fill="#b8c4c5" d="M438.499556 150.072889a348.899556 348.899556 0 0 1 147.000888-0.056889c6.314667 42.837333 30.890667 82.488889 70.200889 105.813333 39.310222 23.381333 84.935111 25.429333 124.188445 9.671111a372.053333 372.053333 0 0 1 73.386666 131.072A149.219556 149.219556 0 0 0 799.402667 512c0 46.705778 21.048889 88.405333 53.930666 115.484444a376.718222 376.718222 0 0 1-73.500444 131.015112 139.832889 139.832889 0 0 0-124.131556 9.671111 147.740444 147.740444 0 0 0-70.200889 105.756444 348.956444 348.956444 0 0 1-147.000888 0.056889 147.740444 147.740444 0 0 0-70.200889-105.813333 139.832889 139.832889 0 0 0-124.188445-9.671111 372.053333 372.053333 0 0 1-73.386666-131.072A149.219556 149.219556 0 0 0 224.597333 512c0-46.705778-21.048889-88.405333-53.930666-115.484444a376.775111 376.775111 0 0 1 73.500444-131.015112c39.253333 15.758222 84.764444 13.710222 124.131556-9.671111a147.740444 147.740444 0 0 0 70.200889-105.756444zM512 622.933333c59.505778 0 107.747556-49.664 107.747556-110.933333S571.505778 401.066667 512 401.066667c-59.505778 0-107.747556 49.664-107.747556 110.933333S452.494222 622.933333 512 622.933333z"  /></svg>